<?xml version="1.0" encoding="UTF-8" standalone="no"?>
<!DOCTYPE svg PUBLIC "-//W3C//DTD SVG 1.1//EN" "http://www.w3.org/Graphics/SVG/1.1/DTD/svg11.dtd">
<svg version="1.1" xmlns="http://www.w3.org/2000/svg" xmlns:xlink="http://www.w3.org/1999/xlink" preserveAspectRatio="xMidYMid meet" viewBox="301.9999999999998 353.5617627964108 310 309.9999999999999" width="300" height="300"><defs><path d="M387.42 496.41C384.55 496.51 383.08 498.04 382.67 498.51C382.27 498.98 381.55 499.04 381.24 498.76C380.92 498.48 381.27 498.13 381.33 497.1C381.37 496.41 380.87 495.27 379.83 493.66C377.39 490.29 373.17 488.56 367.17 488.48C358.17 488.35 354.99 491.29 352.42 495.19C349.86 499.1 347.64 509.69 352.89 518.07C358.14 526.44 366.67 526.82 372.8 526.7C378.92 526.58 381.58 525.82 382.39 525.41C383.2 525.01 383.92 525.44 384.3 525.76C384.67 526.07 385.05 526.1 385.67 526.23C386.3 526.35 386.55 526.01 386.89 525.63C387.24 525.26 386.49 524.73 385.77 523.85C385.05 522.98 384.99 521.29 385.17 520.23C385.36 519.16 386.55 518.1 386.89 517.79C387.24 517.48 386.27 517.13 385.89 516.98C385.52 516.82 385.05 516.94 384.58 517.51C384.27 517.88 383.66 518.07 382.77 518.07C380.06 518.05 378.15 518.05 377.05 518.07C375.39 518.1 373.77 519.04 373.08 519.6C372.39 520.16 371.8 520.13 371.58 519.6C371.36 519.07 372.17 518.6 372.99 517.26C373.53 516.36 373.76 515.25 373.67 513.91C373.61 510.87 373.55 508.53 373.49 506.88C373.39 504.41 372.3 503.26 371.86 502.69C371.42 502.13 371.52 501.69 371.95 501.29C372.39 500.88 372.72 500.98 374.3 502.29C375.35 503.16 376.3 503.48 377.14 503.26L391.55 503.26C401.39 503.24 407.14 503.24 408.78 503.26C411.25 503.29 411.5 502.54 411.81 502.29C412.13 502.04 412.69 501.66 412.97 502.1C413.25 502.54 413.17 502.45 412.17 503.45C411.51 504.12 411.34 504.87 411.67 505.7C411.67 517.12 411.67 524.12 411.67 526.7C411.67 530.58 411.67 530.95 412.74 532.2C413.81 533.45 413.3 533.45 411.67 533.2C410.59 533.03 409.84 533.2 409.42 533.7C403.51 537.12 398.51 539.41 394.42 540.58C390.34 541.74 383.97 542.53 375.3 542.95C375.38 547.78 375.51 550.74 375.67 551.83C375.92 553.45 375.92 555.7 374.3 555.7C372.67 555.7 373.05 552.83 373.67 550.95C374.09 549.7 374.09 547.03 373.67 542.95C368.67 542.95 364.8 542.83 362.05 542.58C359.3 542.33 356.09 541.87 352.42 541.21C352.17 545.71 352.17 548.95 352.42 550.95C352.8 553.95 353.67 562.2 353.8 564.2C353.92 566.2 353.67 571.45 351.3 571.45C348.92 571.45 348.05 568.2 348.05 567.2C348.05 566.2 348.42 563.95 349.67 560.08C350.51 557.49 350.94 554.91 350.99 552.33L350.99 541.21C347.99 540.71 345.15 539.88 342.49 538.71C338.49 536.96 334.24 533.71 329.99 529.21C325.74 524.71 322.99 516.46 323.24 504.46C323.49 492.46 330.49 479.21 345.24 474.46C359.99 469.71 372.95 471.93 377.14 472.37C381.33 472.81 393.68 475.15 401.12 480.96C408.56 486.77 409.93 491.9 410.49 493.46C411.06 495.02 413.49 497.15 412.74 497.65C411.99 498.15 411.56 497.33 411.06 496.65C410.72 496.19 409.22 496.04 406.56 496.21C395.72 496.28 389.34 496.35 387.42 496.41Z" id="fofj8sCpm"></path><path d="M423.48 580.7L422.99 582.75L421.77 583.37L420.61 582.62L420.31 580.54L420.86 577.12L422.27 572.37L423.24 577.25L423.48 580.7ZM414.47 471.48L414.52 471.49L414.57 471.51L414.63 471.53L414.68 471.55L414.73 471.58L414.78 471.61L414.83 471.65L414.88 471.69L414.94 471.73L414.99 471.77L415.04 471.82L415.1 471.87L415.15 471.92L415.21 471.98L415.27 472.04L415.33 472.09L415.39 472.16L415.45 472.22L415.52 472.28L415.59 472.34L415.66 472.41L415.73 472.47L415.81 472.54L415.89 472.61L415.97 472.67L416.05 472.74L416.14 472.8L416.24 472.87L416.33 472.93L416.44 472.99L416.54 473.06L416.62 473.1L416.69 473.13L416.77 473.17L416.86 473.21L416.94 473.24L417.03 473.28L417.13 473.31L417.22 473.34L417.32 473.37L417.42 473.4L417.53 473.43L417.64 473.45L417.75 473.48L417.87 473.5L417.99 473.52L418.11 473.55L418.24 473.57L418.37 473.58L418.5 473.6L418.64 473.62L418.77 473.63L418.92 473.65L419.06 473.66L419.21 473.67L419.36 473.68L419.52 473.69L419.68 473.7L419.84 473.7L420.01 473.71L420.17 473.71L420.35 473.71L420.52 473.72L420.7 473.72L420.88 473.71L421.07 473.71L421.26 473.71L421.45 473.7L421.64 473.7L421.84 473.69L422.04 473.68L462.98 473.68L463.51 473.68L464.05 473.68L464.58 473.69L465.12 473.69L465.65 473.7L466.18 473.71L466.71 473.72L467.24 473.73L467.76 473.74L468.29 473.76L468.8 473.78L469.32 473.79L469.83 473.81L470.34 473.83L470.84 473.85L471.34 473.88L471.83 473.9L472.32 473.93L472.8 473.96L473.28 473.98L473.74 474.01L474.2 474.05L474.66 474.08L475.1 474.11L475.54 474.15L475.97 474.18L476.39 474.22L476.8 474.26L477.2 474.3L477.59 474.34L477.97 474.38L478.34 474.42L478.69 474.47L479.04 474.51L479.37 474.56L479.7 474.61L480 474.65L480.3 474.7L480.58 474.75L480.85 474.81L481.12 474.86L481.39 474.92L481.66 474.98L481.94 475.04L482.22 475.11L482.5 475.18L482.79 475.26L483.07 475.34L483.36 475.42L483.65 475.5L483.94 475.59L484.23 475.68L484.52 475.77L484.81 475.86L485.1 475.96L485.38 476.05L485.67 476.15L485.95 476.25L486.23 476.35L486.5 476.45L486.77 476.56L487.04 476.66L487.3 476.76L487.56 476.87L487.81 476.97L488.06 477.07L488.29 477.18L488.53 477.28L488.75 477.38L488.97 477.49L489.17 477.59L489.37 477.69L489.56 477.79L489.75 477.88L489.92 477.98L490.08 478.07L490.23 478.17L490.36 478.26L490.49 478.34L490.6 478.43L490.72 478.52L490.84 478.62L490.96 478.72L491.1 478.84L491.24 478.96L491.39 479.09L491.54 479.23L491.7 479.38L491.87 479.54L492.03 479.71L492.2 479.88L492.38 480.06L492.55 480.25L492.73 480.45L492.9 480.66L493.08 480.87L493.26 481.09L493.43 481.32L493.61 481.56L493.78 481.81L493.95 482.06L494.12 482.32L494.29 482.58L494.45 482.86L494.6 483.14L494.75 483.43L494.9 483.72L495.03 484.03L495.17 484.34L495.29 484.65L495.4 484.98L495.51 485.31L495.61 485.64L495.69 485.99L495.77 486.34L495.84 486.69L495.89 487.05L495.93 487.42L495.96 487.8L495.98 488.18L495.98 488.56L495.98 488.94L495.97 489.3L495.95 489.67L495.93 490.02L495.9 490.37L495.86 490.71L495.82 491.05L495.77 491.38L495.71 491.7L495.65 492.02L495.59 492.33L495.52 492.63L495.44 492.93L495.36 493.22L495.28 493.5L495.2 493.78L495.11 494.05L495.02 494.31L494.92 494.57L494.83 494.82L494.73 495.06L494.63 495.3L494.53 495.53L494.43 495.75L494.33 495.97L494.22 496.17L494.12 496.38L494.02 496.57L493.91 496.76L493.81 496.94L493.71 497.11L493.61 497.28L493.51 497.44L493.42 497.59L493.32 497.73L493.23 497.87L493.15 498L493.06 498.13L492.98 498.24L492.9 498.35L492.81 498.46L492.72 498.57L492.62 498.68L492.52 498.79L492.41 498.89L492.3 498.99L492.19 499.09L492.08 499.19L491.96 499.29L491.83 499.38L491.71 499.47L491.58 499.56L491.46 499.65L491.33 499.74L491.19 499.82L491.06 499.9L490.93 499.98L490.79 500.05L490.66 500.13L490.52 500.2L490.39 500.26L490.26 500.33L490.12 500.39L489.99 500.45L489.86 500.5L489.73 500.56L489.6 500.61L489.47 500.65L489.35 500.69L489.23 500.73L489.11 500.77L488.99 500.8L488.88 500.83L488.77 500.86L488.67 500.88L488.57 500.9L488.47 500.91L488.38 500.92L488.29 500.93L488.21 500.94L488.13 500.94L488.06 500.95L487.99 500.96L487.92 500.97L487.86 500.98L487.8 500.99L487.74 501L487.69 501.01L487.64 501.03L487.6 501.05L487.55 501.06L487.51 501.08L487.48 501.1L487.44 501.13L487.41 501.15L487.38 501.17L487.35 501.2L487.33 501.23L487.31 501.26L487.29 501.29L487.27 501.32L487.25 501.36L487.24 501.39L487.23 501.43L487.21 501.47L487.21 501.51L487.2 501.56L487.19 501.6L487.18 501.65L487.18 501.7L487.18 501.75L487.17 501.81L487.17 501.86L487.17 501.92L487.17 501.98L487.17 502.04L487.17 502.11L487.17 502.17L487.17 502.24L487.17 502.31L487.18 502.37L487.19 502.43L487.2 502.49L487.22 502.54L487.25 502.59L487.28 502.63L487.31 502.68L487.34 502.71L487.39 502.75L487.43 502.78L487.48 502.81L487.53 502.83L487.58 502.86L487.64 502.88L487.7 502.9L487.77 502.91L487.83 502.93L487.91 502.94L487.98 502.95L488.06 502.96L488.13 502.97L488.22 502.98L488.3 502.99L488.39 502.99L488.48 502.99L488.57 503L488.66 503L488.76 503L488.85 503.01L488.95 503.01L489.05 503.01L489.16 503.02L489.26 503.02L489.37 503.02L489.48 503.03L489.58 503.03L489.69 503.04L489.8 503.05L489.92 503.06L490.03 503.07L490.16 503.09L490.28 503.12L490.42 503.16L490.56 503.2L490.7 503.25L490.86 503.31L491.01 503.37L491.17 503.44L491.33 503.52L491.5 503.6L491.67 503.69L491.84 503.78L492.01 503.88L492.19 503.98L492.37 504.09L492.55 504.2L492.73 504.31L492.91 504.43L493.09 504.56L493.27 504.68L493.45 504.81L493.63 504.94L493.8 505.08L493.98 505.21L494.15 505.35L494.33 505.49L494.49 505.63L494.66 505.78L494.82 505.92L494.98 506.07L495.13 506.21L495.28 506.36L495.43 506.5L495.56 506.65L495.7 506.79L495.83 506.94L495.95 507.08L496.06 507.23L496.17 507.37L496.27 507.52L496.38 507.68L496.5 507.85L496.62 508.04L496.74 508.24L496.86 508.45L496.99 508.68L497.12 508.92L497.25 509.16L497.39 509.42L497.52 509.69L497.66 509.97L497.79 510.25L497.93 510.55L498.07 510.85L498.2 511.17L498.33 511.49L498.47 511.82L498.59 512.15L498.72 512.49L498.85 512.84L498.97 513.19L499.08 513.55L499.2 513.92L499.3 514.28L499.41 514.65L499.5 515.03L499.6 515.41L499.68 515.79L499.76 516.17L499.83 516.56L499.9 516.95L499.96 517.34L500 517.73L500.05 518.12L500.08 518.51L500.1 518.89L500.11 519.28L500.11 519.67L500.1 520.06L500.09 520.44L500.06 520.82L500.03 521.19L500 521.56L499.96 521.93L499.91 522.29L499.86 522.65L499.81 523.01L499.74 523.35L499.68 523.7L499.61 524.04L499.53 524.37L499.46 524.7L499.37 525.02L499.29 525.34L499.2 525.66L499.1 525.96L499.01 526.26L498.91 526.56L498.81 526.84L498.7 527.13L498.6 527.4L498.49 527.67L498.38 527.93L498.26 528.18L498.15 528.43L498.03 528.67L497.92 528.9L497.8 529.13L497.68 529.35L497.56 529.55L497.44 529.76L497.32 529.95L497.2 530.13L497.08 530.31L496.96 530.48L496.83 530.63L496.72 530.78L496.6 530.92L496.48 531.06L496.36 531.18L496.22 531.32L496.08 531.46L495.93 531.61L495.77 531.76L495.59 531.92L495.41 532.08L495.22 532.24L495.02 532.41L494.81 532.59L494.59 532.76L494.37 532.94L494.14 533.13L493.89 533.31L493.64 533.5L493.39 533.69L493.12 533.88L492.85 534.07L492.57 534.26L492.28 534.45L491.99 534.65L491.69 534.84L491.39 535.03L491.07 535.23L490.76 535.42L490.43 535.61L490.1 535.8L489.77 535.99L489.43 536.17L489.09 536.35L488.74 536.54L488.39 536.71L488.03 536.89L487.67 537.06L487.3 537.23L486.93 537.39L486.56 537.55L486.18 537.7L485.8 537.85L485.42 537.99L485.03 538.13L484.63 538.26L484.22 538.39L483.79 538.52L483.36 538.64L482.93 538.75L482.48 538.86L482.02 538.97L481.56 539.07L481.09 539.16L480.61 539.26L480.12 539.34L479.63 539.43L479.13 539.51L478.63 539.58L478.12 539.66L477.6 539.72L477.08 539.79L476.56 539.85L476.03 539.91L475.5 539.96L474.97 540.01L474.43 540.06L473.9 540.1L473.36 540.14L472.82 540.17L472.27 540.21L471.73 540.24L471.19 540.26L470.64 540.29L470.1 540.31L469.56 540.32L469.02 540.34L468.48 540.35L467.94 540.36L467.4 540.37L466.87 540.37L466.34 540.37L465.81 540.37L465.29 540.37L464.72 540.36L464.06 540.36L463.3 540.36L462.46 540.35L461.54 540.35L460.55 540.35L459.49 540.35L458.37 540.34L457.19 540.34L455.96 540.34L454.69 540.34L453.38 540.34L452.03 540.34L450.66 540.34L449.26 540.34L447.85 540.34L446.43 540.34L445 540.34L443.57 540.34L442.14 540.34L440.73 540.35L439.34 540.35L437.96 540.35L436.62 540.35L435.31 540.35L434.04 540.35L432.81 540.35L431.63 540.36L430.52 540.36L429.46 540.36L428.47 540.36L427.55 540.36L426.72 540.36L425.96 540.36L425.3 540.36L424.74 540.37L424.27 540.37L423.91 540.37L423.67 540.37L423.54 540.37L423.48 540.37L423.41 540.37L423.35 540.36L423.29 540.36L423.24 540.36L423.18 540.35L423.13 540.35L423.07 540.34L423.02 540.34L422.97 540.33L422.92 540.33L422.87 540.33L422.82 540.32L422.78 540.32L422.73 540.32L422.68 540.32L422.63 540.32L422.59 540.32L422.54 540.32L422.49 540.33L422.45 540.34L422.4 540.34L422.35 540.35L422.3 540.37L422.25 540.38L422.2 540.4L422.15 540.42L422.1 540.44L422.05 540.47L421.99 540.5L421.94 540.53L421.88 540.57L421.82 540.61L421.76 540.65L421.7 540.7L421.63 540.75L421.57 540.8L421.5 540.86L421.43 540.92L421.35 540.99L421.28 541.06L421.22 541.14L421.16 541.21L421.1 541.29L421.05 541.37L421.01 541.45L420.97 541.53L420.94 541.61L420.91 541.69L420.89 541.78L420.87 541.86L420.85 541.95L420.84 542.04L420.84 542.13L420.83 542.22L420.83 542.31L420.84 542.4L420.84 542.49L420.85 542.59L420.86 542.68L420.88 542.77L420.89 542.87L420.91 542.96L420.93 543.06L420.95 543.15L420.98 543.25L421 543.34L421.03 543.44L421.05 543.53L421.08 543.63L421.11 543.72L421.14 543.82L421.17 543.91L421.2 544.01L421.22 544.1L421.25 544.19L421.28 544.28L421.3 544.38L421.33 544.47L421.35 544.56L421.38 544.65L421.4 544.74L421.42 544.85L421.45 544.96L421.47 545.07L421.49 545.19L421.51 545.31L421.53 545.44L421.55 545.57L421.58 545.7L421.6 545.84L421.62 545.98L421.64 546.12L421.66 546.26L421.68 546.41L421.7 546.56L421.71 546.7L421.73 546.85L421.75 547.01L421.77 547.16L421.79 547.31L421.8 547.46L421.82 547.61L421.84 547.76L421.85 547.91L421.87 548.05L421.88 548.2L421.9 548.34L421.91 548.49L421.93 548.62L421.94 548.76L421.95 548.89L421.96 549.02L421.98 549.15L421.99 549.27L422 549.39L422.01 549.5L422.02 549.61L422.03 549.71L422.04 549.81L422.05 549.9L422.06 550L422.06 550.1L422.07 550.2L422.07 550.3L422.07 550.41L422.07 550.52L422.06 550.62L422.06 550.73L422.05 550.84L422.04 550.95L422.03 551.06L422.01 551.16L422 551.27L421.98 551.38L421.96 551.49L421.93 551.59L421.9 551.69L421.87 551.79L421.84 551.89L421.8 551.99L421.76 552.08L421.72 552.17L421.67 552.26L421.62 552.34L421.57 552.42L421.51 552.5L421.45 552.57L421.39 552.63L421.32 552.7L421.25 552.75L421.17 552.81L421.09 552.85L421.01 552.89L420.92 552.92L420.83 552.95L420.73 552.97L420.63 552.99L420.53 552.99L420.42 552.99L420.31 552.98L420.2 552.97L420.09 552.95L419.99 552.93L419.9 552.9L419.8 552.86L419.71 552.82L419.63 552.78L419.54 552.73L419.46 552.68L419.38 552.62L419.31 552.56L419.24 552.49L419.17 552.43L419.1 552.36L419.04 552.28L418.98 552.2L418.93 552.13L418.87 552.04L418.82 551.96L418.77 551.88L418.73 551.79L418.69 551.7L418.65 551.61L418.61 551.52L418.58 551.43L418.55 551.34L418.52 551.24L418.49 551.15L418.47 551.06L418.44 550.97L418.42 550.87L418.41 550.78L418.39 550.69L418.38 550.6L418.37 550.52L418.36 550.43L418.36 550.34L418.36 550.26L418.35 550.18L418.36 550.1L418.36 550.01L418.37 549.92L418.38 549.82L418.39 549.72L418.41 549.61L418.43 549.5L418.45 549.39L418.47 549.27L418.49 549.15L418.52 549.02L418.55 548.89L418.58 548.77L418.61 548.63L418.64 548.5L418.67 548.37L418.7 548.23L418.74 548.09L418.77 547.95L418.81 547.81L418.84 547.67L418.88 547.53L418.91 547.39L418.95 547.26L418.98 547.12L419.02 546.98L419.05 546.84L419.08 546.71L419.11 546.58L419.15 546.44L419.17 546.32L419.2 546.19L419.23 546.07L419.25 545.95L419.28 545.83L419.3 545.72L419.31 545.61L419.33 545.5L419.34 545.4L419.35 545.31L419.36 545.2L419.38 545.09L419.39 544.97L419.4 544.83L419.42 544.68L419.43 544.52L419.44 544.36L419.46 544.18L419.47 544L419.48 543.81L419.5 543.61L419.51 543.41L419.51 543.21L419.52 543L419.52 542.79L419.53 542.58L419.52 542.37L419.52 542.15L419.51 541.94L419.5 541.73L419.49 541.52L419.47 541.31L419.45 541.11L419.42 540.91L419.38 540.72L419.35 540.53L419.3 540.35L419.25 540.17L419.2 540.01L419.13 539.86L419.07 539.71L418.99 539.58L418.91 539.45L418.82 539.34L418.72 539.25L418.61 539.17L418.5 539.1L418.38 539.05L418.24 539.01L418.1 538.99L417.96 538.99L417.83 539L417.7 539.03L417.57 539.08L417.45 539.13L417.34 539.2L417.23 539.28L417.13 539.37L417.04 539.48L416.94 539.59L416.86 539.71L416.78 539.84L416.7 539.98L416.63 540.13L416.56 540.29L416.5 540.45L416.44 540.61L416.38 540.78L416.33 540.96L416.28 541.14L416.24 541.32L416.2 541.51L416.16 541.7L416.13 541.89L416.1 542.08L416.07 542.26L416.05 542.45L416.02 542.64L416 542.83L415.99 543.01L415.97 543.19L415.96 543.36L415.95 543.54L415.94 543.7L415.93 543.86L415.93 544.02L415.92 544.16L415.92 544.3L415.92 544.43L415.92 544.56L415.92 544.68L415.92 544.83L415.93 544.99L415.94 545.17L415.95 545.37L415.97 545.58L415.99 545.8L416.01 546.04L416.03 546.29L416.06 546.54L416.08 546.81L416.11 547.09L416.14 547.38L416.17 547.67L416.2 547.96L416.24 548.27L416.27 548.57L416.31 548.88L416.34 549.19L416.38 549.5L416.41 549.81L416.45 550.12L416.49 550.43L416.52 550.73L416.56 551.03L416.6 551.32L416.63 551.61L416.67 551.89L416.7 552.16L416.73 552.42L416.77 552.67L416.8 552.91L416.83 553.14L416.85 553.36L416.88 553.56L416.9 553.74L416.93 553.91L416.95 554.06L416.96 554.19L416.98 554.31L416.99 554.42L417.01 554.56L417.03 554.73L417.06 554.91L417.08 555.12L417.11 555.35L417.14 555.59L417.16 555.85L417.19 556.13L417.22 556.42L417.24 556.72L417.26 557.03L417.28 557.35L417.3 557.68L417.32 558.01L417.33 558.35L417.33 558.69L417.33 559.03L417.33 559.38L417.32 559.72L417.31 560.06L417.29 560.39L417.26 560.72L417.22 561.05L417.18 561.36L417.13 561.66L417.06 561.96L416.99 562.24L416.91 562.5L416.82 562.75L416.72 562.98L416.61 563.2L416.48 563.39L416.34 563.56L416.19 563.71L416.03 563.83L415.85 563.93L415.66 564L415.45 564.04L415.23 564.06L415.01 564.04L414.81 564L414.62 563.93L414.46 563.84L414.31 563.73L414.18 563.59L414.06 563.44L413.96 563.26L413.87 563.07L413.8 562.85L413.74 562.62L413.69 562.37L413.66 562.11L413.63 561.83L413.62 561.54L413.62 561.23L413.62 560.91L413.64 560.57L413.66 560.23L413.69 559.88L413.73 559.51L413.77 559.14L413.82 558.76L413.87 558.37L413.93 557.97L414 557.57L414.06 557.16L414.13 556.75L414.2 556.34L414.27 555.93L414.34 555.51L414.42 555.09L414.49 554.67L414.56 554.25L414.62 553.84L414.69 553.42L414.75 553.01L414.81 552.6L414.87 552.2L414.92 551.81L414.95 551.54L414.98 551.27L415 550.99L415.03 550.7L415.06 550.41L415.08 550.11L415.11 549.8L415.13 549.49L415.15 549.16L415.17 548.84L415.19 548.5L415.21 548.16L415.22 547.81L415.24 547.46L415.25 547.09L415.27 546.73L415.28 546.35L415.29 545.97L415.3 545.58L415.31 545.18L415.31 544.78L415.32 544.37L415.33 543.95L415.33 543.53L415.33 543.09L415.33 542.66L415.33 542.21L415.33 541.76L415.33 541.3L415.33 540.84L415.32 540.36L415.32 539.89L415.31 539.4L415.3 538.91L415.29 538.41L415.28 537.9L415.27 537.39L415.26 536.87L415.24 536.34L415.23 535.81L415.23 477.99L415.23 477.83L415.22 477.67L415.22 477.51L415.21 477.35L415.2 477.19L415.19 477.04L415.17 476.88L415.16 476.73L415.14 476.58L415.12 476.44L415.1 476.29L415.08 476.15L415.05 476.01L415.02 475.87L414.99 475.74L414.97 475.61L414.93 475.48L414.9 475.35L414.87 475.23L414.83 475.11L414.79 474.99L414.76 474.88L414.72 474.77L414.68 474.66L414.63 474.56L414.59 474.46L414.55 474.36L414.5 474.27L414.46 474.18L414.41 474.1L414.36 474.02L414.32 473.94L414.27 473.87L414.22 473.8L414.17 473.74L414.12 473.68L414.07 473.63L414.02 473.58L413.97 473.53L413.92 473.49L413.87 473.45L413.82 473.42L413.77 473.37L413.72 473.33L413.68 473.29L413.64 473.25L413.6 473.2L413.56 473.16L413.53 473.11L413.49 473.07L413.46 473.02L413.44 472.97L413.41 472.93L413.39 472.88L413.37 472.83L413.35 472.78L413.33 472.73L413.32 472.68L413.31 472.63L413.31 472.58L413.3 472.53L413.3 472.48L413.31 472.43L413.31 472.38L413.32 472.33L413.34 472.28L413.35 472.23L413.37 472.18L413.4 472.13L413.42 472.08L413.46 472.03L413.49 471.98L413.53 471.93L413.57 471.89L413.62 471.84L413.67 471.79L413.73 471.75L413.78 471.7L413.85 471.66L413.92 471.62L413.99 471.58L414.05 471.55L414.12 471.52L414.18 471.5L414.24 471.48L414.3 471.48L414.36 471.47L414.41 471.47L414.47 471.48ZM439.82 513.5L439.7 513.53L439.58 513.58L439.46 513.64L439.34 513.71L439.22 513.79L439.1 513.89L438.98 513.99L438.86 514.1L438.76 514.2L438.66 514.3L438.58 514.4L438.51 514.49L438.45 514.58L438.41 514.67L438.37 514.75L438.35 514.84L438.35 514.92L438.36 515.01L438.38 515.1L438.42 515.18L438.47 515.27L438.54 515.36L438.63 515.46L438.73 515.56L438.84 515.66L438.94 515.76L439.03 515.87L439.13 515.99L439.22 516.12L439.3 516.25L439.39 516.39L439.47 516.55L439.55 516.71L439.63 516.88L439.72 517.07L439.81 517.27L439.89 517.48L439.99 517.71L440.08 517.95L440.18 518.21L440.29 518.49L440.38 518.79L440.45 519.12L440.48 519.46L440.48 519.82L440.45 520.19L440.41 520.57L440.34 520.95L440.25 521.33L440.14 521.7L440.02 522.06L439.89 522.41L439.75 522.74L439.6 523.04L439.45 523.32L439.29 523.56L439.13 523.76L438.98 523.93L438.84 524.07L438.72 524.21L438.63 524.35L438.57 524.49L438.52 524.63L438.5 524.76L438.5 524.89L438.51 525.02L438.54 525.14L438.59 525.26L438.66 525.38L438.74 525.49L438.83 525.6L438.93 525.71L439.04 525.81L439.16 525.9L439.29 525.99L439.42 526.07L439.55 526.12L439.68 526.15L439.8 526.16L439.92 526.15L440.05 526.12L440.17 526.07L440.3 526.01L440.44 525.93L440.57 525.83L440.72 525.73L440.86 525.61L441.02 525.48L441.18 525.34L441.35 525.19L441.54 525.03L441.73 524.87L441.87 524.76L442.03 524.66L442.2 524.58L442.39 524.5L442.6 524.42L442.83 524.36L443.07 524.31L443.33 524.26L443.6 524.23L443.9 524.2L444.21 524.18L444.53 524.17L444.87 524.16L445.24 524.17L445.61 524.19L446.01 524.21L446.42 524.24L453.73 524.24L454.73 524.25L455.69 524.26L456.61 524.26L457.5 524.26L458.35 524.27L459.17 524.27L459.95 524.27L460.7 524.27L461.41 524.27L462.08 524.27L462.72 524.27L463.32 524.27L463.89 524.26L464.42 524.26L464.91 524.26L465.37 524.25L465.79 524.24L466.4 524.23L467.02 524.2L467.63 524.17L468.23 524.11L468.83 524.03L469.4 523.92L469.95 523.79L470.47 523.61L470.96 523.4L471.41 523.13L471.81 522.83L472.16 522.46L472.46 522.04L472.7 521.55L472.86 521L472.96 520.38L472.98 519.68L472.92 518.98L472.79 518.34L472.6 517.78L472.35 517.28L472.03 516.83L471.67 516.45L471.25 516.11L470.79 515.83L470.29 515.6L469.75 515.4L469.18 515.25L468.58 515.13L467.96 515.05L467.31 515L466.65 514.98L465.98 514.97L465.29 514.99L464.5 515.02L463.5 515.06L462.34 515.1L461.04 515.14L459.63 515.19L458.14 515.24L456.6 515.29L455.03 515.33L453.48 515.38L451.97 515.42L450.52 515.46L449.17 515.49L447.95 515.52L446.88 515.54L446 515.56L445.34 515.56L444.92 515.56L444.63 515.54L444.34 515.51L444.06 515.46L443.77 515.41L443.5 515.34L443.22 515.26L442.96 515.18L442.7 515.08L442.45 514.98L442.21 514.87L441.99 514.76L441.78 514.64L441.58 514.51L441.4 514.39L441.24 514.26L441.1 514.12L440.98 513.99L440.87 513.87L440.76 513.76L440.64 513.68L440.53 513.6L440.41 513.55L440.3 513.51L440.18 513.48L440.06 513.48L439.94 513.48L439.82 513.5ZM439.8 488.59L439.68 488.63L439.55 488.71L439.42 488.81L439.29 488.92L439.18 489.03L439.1 489.15L439.03 489.27L438.99 489.38L438.96 489.5L438.95 489.62L438.95 489.74L438.98 489.86L439.01 489.98L439.07 490.09L439.13 490.21L439.22 490.33L439.31 490.44L439.42 490.56L439.53 490.69L439.63 490.86L439.74 491.07L439.84 491.3L439.93 491.56L440.02 491.83L440.1 492.12L440.17 492.42L440.24 492.72L440.3 493.01L440.35 493.31L440.4 493.59L440.43 493.85L440.46 494.09L440.48 494.31L440.49 494.52L440.49 494.76L440.49 495.03L440.48 495.31L440.46 495.61L440.43 495.92L440.39 496.23L440.34 496.54L440.28 496.85L440.21 497.15L440.12 497.43L440.01 497.71L439.89 497.95L439.76 498.18L439.6 498.37L439.45 498.53L439.31 498.68L439.19 498.81L439.09 498.93L439 499.04L438.94 499.13L438.89 499.22L438.86 499.31L438.84 499.39L438.85 499.47L438.87 499.55L438.92 499.64L438.98 499.73L439.06 499.82L439.17 499.93L439.28 500.04L439.39 500.13L439.49 500.2L439.6 500.26L439.71 500.31L439.81 500.34L439.92 500.35L440.04 500.35L440.15 500.34L440.27 500.31L440.4 500.26L440.53 500.2L440.67 500.13L440.82 500.04L440.98 499.93L441.16 499.81L441.38 499.69L441.63 499.56L441.91 499.43L442.22 499.3L442.56 499.17L442.91 499.05L443.28 498.92L443.67 498.81L444.07 498.7L444.47 498.61L444.88 498.52L445.29 498.45L445.7 498.4L446.1 498.37L446.52 498.35L446.98 498.34L447.46 498.35L447.97 498.36L448.5 498.39L449.05 498.42L449.6 498.46L450.17 498.51L450.73 498.56L451.29 498.62L451.84 498.68L452.38 498.74L452.89 498.8L453.39 498.87L453.85 498.93L454.39 498.99L455.08 499.05L455.89 499.11L456.81 499.15L457.81 499.18L458.87 499.2L459.96 499.19L461.06 499.16L462.14 499.1L463.19 499.01L464.17 498.88L465.06 498.71L465.84 498.5L466.49 498.24L466.98 497.93L467.36 497.6L467.69 497.3L467.98 497.02L468.23 496.75L468.45 496.5L468.64 496.27L468.79 496.04L468.91 495.82L469.01 495.61L469.09 495.4L469.15 495.19L469.19 494.98L469.21 494.76L469.23 494.54L469.23 494.31L469.22 494.07L469.18 493.82L469.12 493.58L469.04 493.33L468.93 493.08L468.79 492.83L468.63 492.58L468.44 492.34L468.23 492.1L467.99 491.87L467.72 491.64L467.42 491.42L467.09 491.2L466.74 491L466.35 490.81L466.05 490.69L465.66 490.58L465.18 490.49L464.63 490.41L463.99 490.34L463.27 490.29L462.47 490.24L461.59 490.21L460.62 490.2L459.58 490.19L458.45 490.2L457.23 490.23L455.94 490.26L454.56 490.31L453.1 490.37L445.73 490.37L445.27 490.36L444.83 490.33L444.42 490.29L444.03 490.23L443.66 490.16L443.32 490.08L443 489.99L442.7 489.89L442.43 489.79L442.17 489.68L441.94 489.58L441.73 489.47L441.54 489.37L441.38 489.27L441.23 489.18L441.09 489.09L440.97 489L440.84 488.92L440.72 488.84L440.61 488.76L440.49 488.7L440.38 488.64L440.27 488.6L440.15 488.57L440.04 488.56L439.92 488.56L439.8 488.59Z" id="a4RyCD5K2S"></path><path d="M502.05 476.43C502.05 474.87 500.86 473.31 500.39 472.93C499.92 472.56 500.61 471.9 501.2 471.65C501.8 471.4 502.08 472.06 502.73 472.75C503.39 473.43 504.58 473.56 505.55 473.56C506.51 473.56 521.76 473.56 523.89 473.56C526.01 473.56 527.01 472.18 527.51 471.84C528.01 471.5 528.45 471.78 528.86 472.21C529.26 472.65 528.42 473.43 527.61 474.21C526.8 475 527.01 476.5 527.01 477.62C527.01 478.75 527.17 492 527.01 493.84C526.86 495.68 526.39 496.78 526.08 497.53C525.76 498.28 525.86 498.9 526.51 499.28C527.17 499.65 527.64 498.43 528.2 497.53C528.76 496.62 531.08 494.06 531.86 493.31C532.64 492.56 549.05 476.37 550.23 475.34C551.42 474.31 550.61 472.96 550.39 472.43C550.17 471.9 550.98 471.65 551.51 471.56C552.05 471.46 551.98 471.21 552.76 472.43C553.55 473.65 555.2 473.75 556.2 473.68C557.2 473.62 579.01 473.59 580.98 473.56C582.95 473.53 585.11 472.75 585.58 472.43C586.05 472.12 586.48 472.18 586.83 472.59C587.17 473 586.36 473.31 585.58 473.68C584.8 474.06 581.67 475.9 580.76 476.75C579.86 477.59 562.01 493.28 560.86 494.18C559.7 495.09 558.36 494.9 557.73 494.9C557.11 494.9 556.48 495.21 556.33 496.4C556.17 497.59 557.3 497.9 558.17 498.21C559.05 498.53 560.05 499.75 560.73 500.59C561.42 501.43 581.42 530.31 584.48 534.65C587.55 539 589.39 540.31 590.01 540.84C590.64 541.37 591.05 541.84 590.58 542.18C590.11 542.53 589.61 541.56 588.7 541.12C587.8 540.68 585.92 540.62 584.08 540.59C582.23 540.56 561.23 540.21 560.05 540.4C558.86 540.59 557.61 541.96 557.26 542.37C556.92 542.78 556.2 542.78 555.89 542.18C555.58 541.59 555.98 541.56 556.2 540.21C556.42 538.87 555.17 537.34 554.67 536.65C554.17 535.96 549.17 528.78 547.95 527C546.73 525.21 541.48 517.31 540.33 515.4C539.17 513.5 539.39 511.81 539.39 511.09C539.39 510.37 538.76 510.09 537.92 510.21C537.08 510.34 537.14 511.09 536.92 511.93C536.7 512.78 536.08 513.53 535.39 514.31C534.7 515.09 529.76 519.03 529.23 519.53C528.7 520.03 527.64 520.4 527.2 520.06C526.76 519.71 526.08 519.84 525.55 520.15C525.01 520.46 524.92 521.28 524.95 521.81C524.98 522.34 525.51 522.87 526.23 523.87C526.95 524.87 526.98 527 527.01 528C527.05 529 527.01 537.46 527.01 538.37C527.01 539.28 527.05 540.09 527.42 540.4C527.8 540.71 528.45 541.15 528.86 541.5C529.26 541.84 528.3 542.09 527.98 542.37C527.67 542.65 527.55 542.34 527.2 542C526.86 541.65 525.51 540.9 524.95 540.59C524.39 540.28 523.45 540.09 522.64 540.09C521.83 540.09 505.58 540.28 504.95 540.21C504.33 540.15 503.58 540.53 503.2 540.84C502.83 541.15 501.7 542.21 501.2 542.5C500.7 542.78 500.3 542.37 500.14 541.87C499.98 541.37 500.55 541.03 501.33 540.21C501.85 539.67 502.06 538.6 501.95 537C502.01 497.66 502.05 477.47 502.05 476.43Z" id="a7qHbm1dw"></path><path d="M307 358.56L607 358.56L607 658.56L307 658.56L307 358.56Z" id="cByROR964"></path></defs><g><g><use xlink:href="#fofj8sCpm" opacity="1" fill="#000000" fill-opacity="1"></use></g><g><use xlink:href="#a4RyCD5K2S" opacity="1" fill="#000000" fill-opacity="1"></use></g><g><use xlink:href="#a7qHbm1dw" opacity="1" fill="#000000" fill-opacity="1"></use></g><g><g><use xlink:href="#cByROR964" opacity="1" fill-opacity="0" stroke="#000000" stroke-width="10" stroke-opacity="1"></use></g></g></g></svg>