<?xml version="1.0" encoding="UTF-8" standalone="no"?><!DOCTYPE svg PUBLIC "-//W3C//DTD SVG 1.1//EN" "http://www.w3.org/Graphics/SVG/1.1/DTD/svg11.dtd"><svg width="100%" height="100%" viewBox="0 0 997 140" version="1.1" xmlns="http://www.w3.org/2000/svg" xmlns:xlink="http://www.w3.org/1999/xlink" xml:space="preserve" xmlns:serif="http://www.serif.com/" style="fill-rule:evenodd;clip-rule:evenodd;stroke-linejoin:round;stroke-miterlimit:2;"><g id="Lip-Gloss" serif:id="Lip Gloss"><path d="M2.021,4.261l30.238,-0l0,106.021l65.517,-0l-0,24.638l-95.755,0l-0,-130.659Z" style="fill:none;fill-rule:nonzero;stroke:#fff;stroke-width:4.04px;"/><rect x="114.761" y="4.261" width="30.238" height="130.659" style="fill:none;fill-rule:nonzero;stroke:#fff;stroke-width:4.04px;"/><path d="M232.541,4.261c11.573,-0 21.621,1.929 30.145,5.786c8.524,3.858 15.088,9.333 19.693,16.426c4.604,7.093 6.906,15.492 6.906,25.199c-0,9.581 -2.302,17.95 -6.906,25.105c-4.605,7.155 -11.169,12.63 -19.693,16.426c-8.524,3.795 -18.572,5.693 -30.145,5.693l-26.318,-0l-0,36.024l-30.238,0l-0,-130.659l56.556,-0Zm-1.68,69.996c9.084,-0 15.991,-1.96 20.719,-5.88c4.729,-3.92 7.093,-9.488 7.093,-16.705c0,-7.342 -2.364,-12.973 -7.093,-16.893c-4.728,-3.92 -11.635,-5.88 -20.719,-5.88l-24.638,0l-0,45.358l24.638,-0Z" style="fill:none;fill-rule:nonzero;stroke:#fff;stroke-width:4.04px;"/><path d="M453.729,67.537l27.625,0l0,53.011c-7.093,5.35 -15.306,9.457 -24.639,12.319c-9.332,2.862 -18.727,4.293 -28.185,4.293c-13.563,0 -25.758,-2.893 -36.584,-8.679c-10.826,-5.787 -19.319,-13.813 -25.479,-24.079c-6.159,-10.266 -9.239,-21.87 -9.239,-34.811c-0,-12.942 3.08,-24.546 9.239,-34.812c6.16,-10.266 14.715,-18.292 25.665,-24.078c10.951,-5.787 23.27,-8.68 36.958,-8.68c11.449,-0 21.839,1.929 31.172,5.786c9.333,3.858 17.172,9.458 23.519,16.799l-19.413,17.919c-9.332,-9.83 -20.594,-14.745 -33.784,-14.745c-8.338,-0 -15.742,1.742 -22.212,5.226c-6.471,3.484 -11.511,8.399 -15.12,14.746c-3.608,6.346 -5.413,13.626 -5.413,21.839c0,8.088 1.805,15.305 5.413,21.652c3.609,6.346 8.618,11.292 15.026,14.839c6.409,3.546 13.719,5.32 21.932,5.32c8.711,-0 16.55,-1.867 23.519,-5.6l-0,-38.265Z" style="fill:none;fill-rule:nonzero;stroke:#fff;stroke-width:4.04px;"/><path d="M509.353,4.261l30.238,-0l-0,106.021l65.516,-0l0,24.638l-95.754,0l-0,-130.659Z" style="fill:none;fill-rule:nonzero;stroke:#fff;stroke-width:4.04px;"/><path d="M683.129,137.16c-13.563,0 -25.789,-2.924 -36.677,-8.773c-10.889,-5.848 -19.413,-13.906 -25.572,-24.172c-6.16,-10.266 -9.24,-21.807 -9.24,-34.624c0,-12.818 3.08,-24.359 9.24,-34.625c6.159,-10.266 14.683,-18.324 25.572,-24.172c10.888,-5.849 23.114,-8.773 36.677,-8.773c13.564,-0 25.759,2.924 36.585,8.773c10.826,5.848 19.35,13.906 25.572,24.172c6.222,10.266 9.333,21.807 9.333,34.625c-0,12.817 -3.111,24.358 -9.333,34.624c-6.222,10.266 -14.746,18.324 -25.572,24.172c-10.826,5.849 -23.021,8.773 -36.585,8.773Zm0,-25.758c7.716,-0 14.684,-1.774 20.906,-5.32c6.222,-3.547 11.106,-8.493 14.652,-14.839c3.547,-6.347 5.32,-13.564 5.32,-21.652c0,-8.089 -1.773,-15.306 -5.32,-21.653c-3.546,-6.346 -8.43,-11.292 -14.652,-14.839c-6.222,-3.546 -13.19,-5.319 -20.906,-5.319c-7.715,-0 -14.683,1.773 -20.905,5.319c-6.222,3.547 -11.106,8.493 -14.653,14.839c-3.546,6.347 -5.319,13.564 -5.319,21.653c-0,8.088 1.773,15.305 5.319,21.652c3.547,6.346 8.431,11.292 14.653,14.839c6.222,3.546 13.19,5.32 20.905,5.32Z" style="fill:none;fill-rule:nonzero;stroke:#fff;stroke-width:4.04px;"/><path d="M820.322,137.16c-10.329,0 -20.315,-1.4 -29.959,-4.2c-9.643,-2.8 -17.39,-6.439 -23.238,-10.919l10.266,-22.772c5.6,4.106 12.257,7.404 19.972,9.893c7.715,2.488 15.43,3.733 23.145,3.733c8.587,-0 14.933,-1.276 19.039,-3.827c4.107,-2.551 6.16,-5.942 6.16,-10.172c0,-3.111 -1.213,-5.693 -3.64,-7.747c-2.426,-2.053 -5.537,-3.702 -9.333,-4.946c-3.795,-1.244 -8.928,-2.613 -15.399,-4.106c-9.955,-2.365 -18.105,-4.729 -24.452,-7.093c-6.346,-2.365 -11.79,-6.16 -16.332,-11.386c-4.542,-5.227 -6.813,-12.195 -6.813,-20.906c-0,-7.591 2.053,-14.466 6.16,-20.625c4.106,-6.16 10.297,-11.044 18.572,-14.653c8.275,-3.609 18.386,-5.413 30.332,-5.413c8.337,-0 16.487,0.995 24.451,2.986c7.964,1.991 14.933,4.854 20.906,8.587l-9.333,22.958c-12.07,-6.844 -24.141,-10.266 -36.211,-10.266c-8.462,0 -14.715,1.369 -18.759,4.107c-4.044,2.737 -6.066,6.346 -6.066,10.826c-0,4.48 2.333,7.808 6.999,9.986c4.667,2.178 11.791,4.324 21.372,6.44c9.955,2.364 18.106,4.728 24.452,7.092c6.347,2.365 11.791,6.098 16.333,11.2c4.542,5.102 6.813,12.008 6.813,20.719c-0,7.466 -2.085,14.279 -6.253,20.439c-4.169,6.159 -10.422,11.043 -18.759,14.652c-8.338,3.609 -18.479,5.413 -30.425,5.413Z" style="fill:none;fill-rule:nonzero;stroke:#fff;stroke-width:4.04px;"/><path d="M939.408,137.16c-10.328,0 -20.314,-1.4 -29.958,-4.2c-9.644,-2.8 -17.39,-6.439 -23.239,-10.919l10.266,-22.772c5.6,4.106 12.258,7.404 19.973,9.893c7.715,2.488 15.43,3.733 23.145,3.733c8.586,-0 14.933,-1.276 19.039,-3.827c4.106,-2.551 6.16,-5.942 6.16,-10.172c-0,-3.111 -1.214,-5.693 -3.64,-7.747c-2.427,-2.053 -5.538,-3.702 -9.333,-4.946c-3.795,-1.244 -8.928,-2.613 -15.399,-4.106c-9.955,-2.365 -18.106,-4.729 -24.452,-7.093c-6.346,-2.365 -11.79,-6.16 -16.332,-11.386c-4.542,-5.227 -6.813,-12.195 -6.813,-20.906c-0,-7.591 2.053,-14.466 6.159,-20.625c4.107,-6.16 10.297,-11.044 18.573,-14.653c8.275,-3.609 18.385,-5.413 30.331,-5.413c8.337,-0 16.488,0.995 24.452,2.986c7.964,1.991 14.933,4.854 20.906,8.587l-9.333,22.958c-12.071,-6.844 -24.141,-10.266 -36.211,-10.266c-8.462,0 -14.715,1.369 -18.759,4.107c-4.045,2.737 -6.067,6.346 -6.067,10.826c0,4.48 2.333,7.808 7,9.986c4.666,2.178 11.79,4.324 21.372,6.44c9.955,2.364 18.106,4.728 24.452,7.092c6.346,2.365 11.79,6.098 16.332,11.2c4.542,5.102 6.813,12.008 6.813,20.719c0,7.466 -2.084,14.279 -6.253,20.439c-4.168,6.159 -10.421,11.043 -18.759,14.652c-8.337,3.609 -18.479,5.413 -30.425,5.413Z" style="fill:none;fill-rule:nonzero;stroke:#fff;stroke-width:4.04px;"/></g></svg>