<?xml version="1.0" encoding="UTF-8" standalone="no"?>
<!DOCTYPE svg PUBLIC "-//W3C//DTD SVG 1.1//EN" "http://www.w3.org/Graphics/SVG/1.1/DTD/svg11.dtd">
<svg width="100%" height="100%" viewBox="0 0 1052 140" version="1.1" xmlns="http://www.w3.org/2000/svg" xmlns:xlink="http://www.w3.org/1999/xlink" xml:space="preserve" xmlns:serif="http://www.serif.com/" style="fill-rule:evenodd;clip-rule:evenodd;stroke-linejoin:round;stroke-miterlimit:2;">
    <g transform="matrix(1,0,0,1,-188.612,-975.167)">
        <g id="Skin-Care" serif:id="Skin Care" transform="matrix(3.73312,0,0,3.73312,-1405.43,-2229.59)">
            <g>
                <path d="M441.791,895.206C439.024,895.206 436.349,894.831 433.766,894.081C431.183,893.331 429.108,892.356 427.541,891.156L430.291,885.056C431.791,886.156 433.574,887.039 435.641,887.706C437.708,888.372 439.774,888.706 441.841,888.706C444.141,888.706 445.841,888.364 446.941,887.681C448.041,886.997 448.591,886.089 448.591,884.956C448.591,884.122 448.266,883.431 447.616,882.881C446.966,882.331 446.133,881.889 445.116,881.556C444.099,881.222 442.724,880.856 440.991,880.456C438.324,879.822 436.141,879.189 434.441,878.556C432.741,877.922 431.283,876.906 430.066,875.506C428.849,874.106 428.241,872.239 428.241,869.906C428.241,867.872 428.791,866.031 429.891,864.381C430.991,862.731 432.649,861.422 434.866,860.456C437.083,859.489 439.791,859.006 442.991,859.006C445.224,859.006 447.408,859.272 449.541,859.806C451.674,860.339 453.541,861.106 455.141,862.106L452.641,868.256C449.408,866.422 446.174,865.506 442.941,865.506C440.674,865.506 438.999,865.872 437.916,866.606C436.833,867.339 436.291,868.306 436.291,869.506C436.291,870.706 436.916,871.597 438.166,872.181C439.416,872.764 441.324,873.339 443.891,873.906C446.558,874.539 448.741,875.172 450.441,875.806C452.141,876.439 453.599,877.439 454.816,878.806C456.033,880.172 456.641,882.022 456.641,884.356C456.641,886.356 456.083,888.181 454.966,889.831C453.849,891.481 452.174,892.789 449.941,893.756C447.708,894.722 444.991,895.206 441.791,895.206Z" style="fill:none;fill-rule:nonzero;stroke:white;stroke-width:1.08px;"/>
                <path d="M474.941,880.856L470.241,885.756L470.241,894.606L462.191,894.606L462.191,859.606L470.241,859.606L470.241,875.956L485.741,859.606L494.741,859.606L480.241,875.206L495.591,894.606L486.141,894.606L474.941,880.856Z" style="fill:none;fill-rule:nonzero;stroke:white;stroke-width:1.08px;"/>
                <rect x="499.191" y="859.606" width="8.1" height="35" style="fill:none;fill-rule:nonzero;stroke:white;stroke-width:1.08px;"/>
                <path d="M547.691,859.606L547.691,894.606L541.041,894.606L523.591,873.356L523.591,894.606L515.591,894.606L515.591,859.606L522.291,859.606L539.691,880.856L539.691,859.606L547.691,859.606Z" style="fill:none;fill-rule:nonzero;stroke:white;stroke-width:1.08px;"/>
                <path d="M586.891,895.206C583.324,895.206 580.099,894.431 577.216,892.881C574.333,891.331 572.066,889.181 570.416,886.431C568.766,883.681 567.941,880.572 567.941,877.106C567.941,873.639 568.766,870.531 570.416,867.781C572.066,865.031 574.333,862.881 577.216,861.331C580.099,859.781 583.341,859.006 586.941,859.006C589.974,859.006 592.716,859.539 595.166,860.606C597.616,861.672 599.674,863.206 601.341,865.206L596.141,870.006C593.774,867.272 590.841,865.906 587.341,865.906C585.174,865.906 583.241,866.381 581.541,867.331C579.841,868.281 578.516,869.606 577.566,871.306C576.616,873.006 576.141,874.939 576.141,877.106C576.141,879.272 576.616,881.206 577.566,882.906C578.516,884.606 579.841,885.931 581.541,886.881C583.241,887.831 585.174,888.306 587.341,888.306C590.841,888.306 593.774,886.922 596.141,884.156L601.341,888.956C599.674,890.989 597.608,892.539 595.141,893.606C592.674,894.672 589.924,895.206 586.891,895.206Z" style="fill:none;fill-rule:nonzero;stroke:white;stroke-width:1.08px;"/>
                <path d="M629.141,887.106L612.891,887.106L609.791,894.606L601.491,894.606L617.091,859.606L625.091,859.606L640.741,894.606L632.241,894.606L629.141,887.106ZM626.591,880.956L621.041,867.556L615.491,880.956L626.591,880.956Z" style="fill:none;fill-rule:nonzero;stroke:white;stroke-width:1.08px;"/>
                <path d="M666.691,894.606L659.941,884.856L652.491,884.856L652.491,894.606L644.391,894.606L644.391,859.606L659.541,859.606C662.641,859.606 665.333,860.122 667.616,861.156C669.899,862.189 671.658,863.656 672.891,865.556C674.124,867.456 674.741,869.706 674.741,872.306C674.741,874.906 674.116,877.147 672.866,879.031C671.616,880.914 669.841,882.356 667.541,883.356L675.391,894.606L666.691,894.606ZM666.541,872.306C666.541,870.339 665.908,868.831 664.641,867.781C663.374,866.731 661.524,866.206 659.091,866.206L652.491,866.206L652.491,878.406L659.091,878.406C661.524,878.406 663.374,877.872 664.641,876.806C665.908,875.739 666.541,874.239 666.541,872.306Z" style="fill:none;fill-rule:nonzero;stroke:white;stroke-width:1.08px;"/>
                <path d="M708.241,888.106L708.241,894.606L681.141,894.606L681.141,859.606L707.591,859.606L707.591,866.106L689.191,866.106L689.191,873.706L705.441,873.706L705.441,880.006L689.191,880.006L689.191,888.106L708.241,888.106Z" style="fill:none;fill-rule:nonzero;stroke:white;stroke-width:1.08px;"/>
            </g>
        </g>
    </g>
</svg>
