<svg width="100%" height="100%" viewBox="0 0 804 138" version="1.1" xmlns="http://www.w3.org/2000/svg" xmlns:xlink="http://www.w3.org/1999/xlink" xml:space="preserve" xmlns:serif="http://www.serif.com/" style="fill-rule:evenodd;clip-rule:evenodd;stroke-linejoin:round;stroke-miterlimit:2;">
    <g id="Beauty">
        <path d="M98.183,64.882c7.483,2.369 13.345,6.329 17.586,11.88c4.24,5.55 6.361,12.378 6.361,20.485c-0,11.475 -4.459,20.299 -13.377,26.473c-8.918,6.174 -21.92,9.261 -39.007,9.261l-67.725,-0l-0,-130.96l63.983,-0c15.965,-0 28.219,3.056 36.762,9.167c8.544,6.112 12.816,14.406 12.816,24.883c-0,6.36 -1.528,12.035 -4.584,17.024c-3.056,4.989 -7.327,8.918 -12.815,11.787Zm-66.041,-40.037l-0,30.869l30.12,0c7.484,0 13.159,-1.309 17.025,-3.928c3.867,-2.619 5.8,-6.486 5.8,-11.6c-0,-5.113 -1.933,-8.949 -5.8,-11.505c-3.866,-2.557 -9.541,-3.836 -17.025,-3.836l-30.12,0Zm35.359,85.311c7.982,0 14,-1.309 18.054,-3.928c4.053,-2.62 6.08,-6.673 6.08,-12.161c-0,-10.851 -8.045,-16.276 -24.134,-16.276l-35.359,-0l-0,32.365l35.359,0Z" style="fill:none;fill-rule:nonzero;stroke:#fff;stroke-width:4.04px;"/>
        <path d="M239.903,108.66l-0,24.321l-101.401,-0l0,-130.96l98.968,-0l0,24.321l-68.847,0l0,28.437l60.803,0l-0,23.573l-60.803,-0l0,30.308l71.28,-0Z" style="fill:none;fill-rule:nonzero;stroke:#fff;stroke-width:4.04px;"/>
        <path d="M360.241,104.918l-60.802,-0l-11.6,28.063l-31.056,-0l58.371,-130.96l29.934,-0l58.557,130.96l-31.804,-0l-11.6,-28.063Zm-9.541,-23.012l-20.766,-50.138l-20.767,50.138l41.533,0Z" style="fill:none;fill-rule:nonzero;stroke:#fff;stroke-width:4.04px;"/>
        <path d="M469.36,135.226c-18.708,-0 -33.27,-5.176 -43.684,-15.528c-10.415,-10.352 -15.622,-25.132 -15.622,-44.34l0,-73.337l30.308,-0l-0,72.215c-0,23.448 9.728,35.172 29.185,35.172c9.479,-0 16.713,-2.837 21.702,-8.512c4.989,-5.675 7.484,-14.562 7.484,-26.66l-0,-72.215l29.933,-0l0,73.337c0,19.208 -5.207,33.988 -15.621,44.34c-10.415,10.352 -24.976,15.528 -43.685,15.528Z" style="fill:none;fill-rule:nonzero;stroke:#fff;stroke-width:4.04px;"/>
        <path d="M586.802,26.716l-41.907,0l-0,-24.695l114.122,-0l-0,24.695l-41.907,0l-0,106.265l-30.308,-0l-0,-106.265Z" style="fill:none;fill-rule:nonzero;stroke:#fff;stroke-width:4.04px;"/>
        <path d="M750.659,86.584l0,46.397l-30.307,-0l-0,-46.772l-50.7,-84.188l32.178,-0l34.985,58.184l34.985,-58.184l29.747,-0l-50.888,84.563Z" style="fill:none;fill-rule:nonzero;stroke:#fff;stroke-width:4.04px;"/>
    </g>
</svg>